<svg width="155" height="201" viewBox="0 0 155 201" fill="none" xmlns="http://www.w3.org/2000/svg">
<path d="M130.838 85.5194C138.976 115.023 121.657 145.538 92.1529 153.677C62.6492 161.816 32.1339 144.496 23.9952 114.992C15.8565 85.4885 33.1763 54.9733 62.68 46.8346C92.1837 38.6959 122.699 56.0157 130.838 85.5194Z" fill="#151517"/>
<path d="M21.4031 28.4133L29.2151 22.0001C58.9889 34.2265 107.891 97.5271 128.62 127.649C133.6 137.985 144.653 162.615 144.653 162.615C144.653 162.615 119.795 177.989 106.821 183.697C103.785 181.695 94.2812 173.742 80.5542 157.941C66.8272 142.14 43.5875 94.6838 33.6835 72.931L21.4031 28.4133Z" fill="#1A191B"/>
<g filter="url(#filter0_f_36_59)">
<path d="M112.485 88.4531C117.308 105.937 107.045 124.02 89.5609 128.843C72.0772 133.666 53.9941 123.402 49.1712 105.918C44.3482 88.4348 54.6118 70.3517 72.0955 65.5288C89.5792 60.7058 107.662 70.9694 112.485 88.4531Z" fill="#272127"/>
</g>
<path fill-rule="evenodd" clip-rule="evenodd" d="M27.0637 27.2047C28.3152 26.0537 30.2628 26.1352 31.4138 27.3868C41.0558 37.8713 63.5791 63.3954 76.2823 81.3896C77.2629 82.7786 76.9318 84.6996 75.5428 85.6802C74.1537 86.6608 72.2327 86.3297 71.2521 84.9407C58.7937 67.2933 36.5019 42.0158 26.8816 31.5548C25.7306 30.3032 25.8121 28.3556 27.0637 27.2047Z" fill="#E9D3C3"/>
<defs>
<filter id="filter0_f_36_59" x="43.9805" y="60.3381" width="73.6953" height="73.6953" filterUnits="userSpaceOnUse" color-interpolation-filters="sRGB">
<feFlood flood-opacity="0" result="BackgroundImageFix"/>
<feBlend mode="normal" in="SourceGraphic" in2="BackgroundImageFix" result="shape"/>
<feGaussianBlur stdDeviation="2" result="effect1_foregroundBlur_36_59"/>
</filter>
</defs>
</svg>
